<?xml version="1.0" encoding="UTF-8"?>
<svg id="Ebene_1" data-name="Ebene 1" xmlns="http://www.w3.org/2000/svg" viewBox="0 0 279.89 178.46">
  <path d="M114.28,92.41c.6-.11,1.57-.82,2.21-1.11l25.16-32.94-6.61-5.24,37.63-10.52,2.77,39.85c-.9.89-7.09-5.31-8.76-4.34l-30.8,41.43H52.58V47.59l26.57,27.4v17.43h35.14ZM114.28,100.72h-43.44v-22.41l-9.96-10.24v43.17h70.56l34.3-45.41-.82-12.7-12.03,3.47-29.74,40.27c-1.48,1.57-6.72,3.57-8.87,3.86Z"/>
  <path d="M79.14,53.95c4.28,3.82,7.18,9.43,12.89,11.46,7.59,2.7,13.64-.38,18.64-5.94,12.71-14.15,27.35-40.79,44.08-48.9,16.54-8.01,36.49-6.31,52.21,2.73.82,1.2-3.9,5.4-4.4,6.92l-.75.19c-16.73-10.79-42.14-8.67-55.14,6.99-1.05,1.27-2.59,3.06-2.78,4.69h11.9c.36,0,4.4-3.6,5.65-4.32,10.36-5.95,23.43-5.47,33.92-.1l-4.44,6.38c-.98.62-5.57-1.39-7.16-1.71-9.94-2.02-18.01,1.29-25.22,8.04l-22.26-.18-22.27,28.15c-7.75,6.58-18.7,8.22-27.86,3.49-5.71-2.95-12.78-12.44-17.51-17.35-5.25-5.44-10.81-10.6-16.06-16.04V6.63h26.57v47.32ZM70.84,14.38h-9.96v20.75l9.96,9.69V14.38Z"/>
  <path d="M116.78,177.8h-11.35c-1.74,0-6.69-10.41-8.59-11.93l-7.74.31v11.62h-11.07v-42.61h24.63c1.31,0,6.47,2.38,7.75,3.32,8.49,6.24,7.31,20.27-1.89,25.24l8.25,14.06ZM89.93,144.04l-.83.83v11.62c2.41,1.47,8.49.91,11.22.15,4.45-1.22,5.89-8.12,2.26-10.87-.5-.38-3.93-1.73-4.35-1.73h-8.3Z"/>
  <path d="M204.77,104.02l-5.89-7.65c-12.42,7.12-25.65,7.83-38.38,1.01l4.47-7.16c12.17,6.58,26.21,3.72,35.65-6.11l15.75,20.74c-17.03,17.17-46.48,20.83-66.36,6.58l4.67-6.15c15.68,9.4,34.9,8.86,50.09-1.27Z"/>
  <path d="M232.17,0c27.59,28.98,28.86,77.56,1.03,106.74-1.64-.56-6-3.91-5.65-5.61.16-.78,6.91-9.25,8.11-11.31,15.54-26.5,11.97-61.3-9.26-83.54l5.77-6.28Z"/>
  <path d="M180.88,134.23c6.69-.23,14.6,1.92,18.87,7.4.1.59-5.78,6.61-6.44,6.78-1.36.36-2.19-1.36-3.3-2.06-8.28-5.24-18.73-1.94-19.55,8.49-1.06,13.55,13.72,18.78,22.41,9.13l6.88,6.43c-3.16,4.53-9.68,7.48-15.19,7.94-31.77,2.67-35.34-43.01-3.69-44.12Z"/>
  <path d="M215.29,144.59v20.2c0,.4,1.95,2.72,2.47,3.06,3.35,2.12,9.7-.61,9.7-4.16v-19.09h11.07v33.21l-10.52-.55v-3.32c-5.73,6.24-17.79,5.55-22.03-2.04-.88-1.57-2.32-5.43-2.32-7.09v-20.2h11.62Z"/>
  <path d="M48.57,144.18c29.91-4.05,29.3,34.93,3.73,34.21-22.71-.64-23.83-31.48-3.73-34.21ZM50.76,153.03c-8.63,1.8-6.46,17.77,3.15,16.45,9.15-1.26,8.72-18.92-3.15-16.45Z"/>
  <path d="M255.69,163.96c2.12,7.25,11.08,6.6,16.25,2.82l5.29,5.68c-10.37,10.66-31.46,5.99-32.63-10.42-1.52-21.31,30.55-25.05,34.75-5.42.24,1.12,1.16,7.34-.14,7.34h-23.52ZM268.97,157.88c.6-8.45-14.73-6.04-13.28-.3.37,1.47,1.77.3,1.93.3h11.35Z"/>
  <path d="M152.75,177.25h-9.96v-2.76c-1.99.63-3.43,2.39-5.53,3.05-8.92,2.8-19.62-2.79-16.09-13.32,2.57-7.66,13.79-5.46,19.69-6.33,1.68-.25.62-2.51-.04-3.3-3.08-3.66-11.94-1-15.75.53l-2.16-7.39c6.02-4.37,19.04-5.35,25.12-.91,1.47,1.07,4.71,5.23,4.71,6.92v23.52ZM141.68,163.96c-3.67-1.31-15.02,1.29-9.14,6.1,3.86,3.16,10.93-.67,9.14-6.1Z"/>
  <path d="M219.44,12.73c21.13,21.73,21.86,59.09,1.03,81.3-.45.07-5.94-4.4-5.62-5.67,14.36-17.26,16.83-41.81,5.1-61.21-.89-1.48-5.59-7.16-5.71-7.62-.36-1.34,4.05-5.6,5.2-6.8Z"/>
  <polygon points="11.62 135.19 11.62 168.39 32.65 168.39 32.65 177.8 0 177.8 0 135.19 11.62 135.19"/>
  <path d="M206.79,26.04c1.48-.26,6.21,7.97,6.94,9.54,7.02,14.93,5.17,33.4-5.97,45.74l-6.17-5.23c10.76-13.26,10.63-31.11-.05-44.38l5.26-5.67Z"/>
  <path d="M194.01,38.2c1.01-.23,3.77,5.15,4.22,6.24,3.25,7.89,1.89,18.28-3.76,24.7l-6.21-5.78c4.67-5.73,4.69-13.65,0-19.38l5.75-5.78Z"/>
</svg>